<?xml version="1.0" encoding="utf-8"?><svg viewBox="0 0 177 50" xmlns="http://www.w3.org/2000/svg" xmlns:xlink="http://www.w3.org/1999/xlink"><style>:root>svg{display:none}:root>svg:target{display:block}</style><svg fill="none" viewBox="0 0 24 24" id="icon-cart" xmlns="http://www.w3.org/2000/svg"><path d="M17.89 20.85H6.11a1.42 1.42 0 0 1-1.38-1.08L2.08 9.16a.7.7 0 0 1 .68-.87h18.48a.7.7 0 0 1 .68.87l-2.65 10.61a1.42 1.42 0 0 1-1.38 1.08v0ZM9.8 3.15 6.9 8.29M13.88 3.15l2.91 5.14" stroke="#151515" stroke-width="2.5" stroke-linecap="round" stroke-linejoin="round"/></svg><svg fill="none" viewBox="0 0 16 16" id="icon-chevron" xmlns="http://www.w3.org/2000/svg"><path d="m4.813 6.533 2.74 2.74a.667.667 0 0 0 .94 0l2.667-2.666" stroke="#6A983C" stroke-width="2.5" stroke-linecap="round" stroke-linejoin="bevel"/></svg><svg fill="none" viewBox="0 0 40 40" id="icon-heart" xmlns="http://www.w3.org/2000/svg"><path clip-rule="evenodd" d="M22.183 8.15a8.485 8.485 0 0 1 12 12L32 22.333l-12 12-12-12-2.183-2.183a8.485 8.485 0 0 1 12-12L20 10.333l2.183-2.183Z" stroke="#151515" stroke-width="4" stroke-linecap="round" stroke-linejoin="round"/></svg><svg fill="none" viewBox="0 0 177 50" id="icon-logo" xmlns="http://www.w3.org/2000/svg"><path d="M3.872 26.76h6.533v-3.52H3.872v-3.718h7.985V16H0v17.609h3.872V26.76ZM13.183 27.005v6.604h3.63v-6.604c0-2.03 1.621-3.668 3.63-3.668v-3.326h-.484c-4.017 0-6.776 3.13-6.776 6.994ZM28.557 20.01c-4.016 0-7.259 3.131-7.259 6.995 0 3.865 3.243 6.995 7.26 6.995 3.194 0 5.904-1.981 6.872-4.745h-4.017a3.599 3.599 0 0 1-2.856 1.419c-1.572 0-2.88-1.003-3.412-2.397h10.55c.074-.416.122-.831.122-1.272 0-3.864-3.243-6.994-7.26-6.994Zm-3.412 5.724c.533-1.394 1.84-2.397 3.412-2.397 1.55 0 2.88 1.003 3.412 2.397h-6.824ZM43.745 25.831c-1.403-.17-3-.782-3-1.565 0-.88.75-1.174 1.548-1.174.799 0 1.55.294 1.55 1.419h3.629c0-2.837-2.372-4.5-5.179-4.5-2.807 0-5.178 1.663-5.178 4.353 0 2.079 2.444 3.644 4.985 3.962 1.089.147 1.887.71 1.887 1.32 0 .857-.895 1.273-1.694 1.273-.798 0-1.694-.294-1.694-1.419h-3.63c0 2.837 2.517 4.5 5.324 4.5s5.324-1.663 5.324-4.5c0-2.226-1.96-3.448-3.872-3.669ZM56.282 20.01c-1.21 0-2.299.441-3.146 1.175V16h-3.63v17.609h3.63V26.98c0-2.006 1.138-3.644 3.146-3.644 2.009 0 3.146 1.639 3.146 3.668v6.604h3.63v-6.604c0-3.864-2.759-6.994-6.776-6.994ZM72.017 20.01c-4.016 0-6.775 3.131-6.775 6.995v6.604h3.63v-6.604c0-2.03 1.137-3.668 3.145-3.668 2.009 0 3.146 1.639 3.146 3.668v6.604h3.63v-6.604c0-3.864-2.759-6.994-6.776-6.994ZM87.635 20.01c-4.017 0-7.26 3.131-7.26 6.995 0 3.865 3.243 6.995 7.26 6.995 3.194 0 5.904-1.981 6.872-4.745H90.49a3.598 3.598 0 0 1-2.855 1.419c-1.573 0-2.88-1.003-3.412-2.397h10.55c.073-.416.121-.831.121-1.272 0-3.864-3.243-6.994-7.26-6.994Zm-3.412 5.724c.532-1.394 1.839-2.397 3.412-2.397 1.548 0 2.88 1.003 3.412 2.397h-6.824ZM102.822 25.831c-1.403-.17-3-.782-3-1.565 0-.88.75-1.174 1.549-1.174.798 0 1.548.294 1.548 1.419h3.63c0-2.837-2.371-4.5-5.178-4.5s-5.179 1.663-5.179 4.353c0 2.079 2.444 3.644 4.985 3.962 1.089.147 1.887.71 1.887 1.32 0 .857-.895 1.273-1.693 1.273-.799 0-1.694-.294-1.694-1.419h-3.63c0 2.837 2.517 4.5 5.324 4.5s5.323-1.663 5.323-4.5c0-2.226-1.96-3.448-3.872-3.669ZM115.117 20.01c-4.017 0-7.259 3.131-7.259 6.995 0 3.865 3.242 6.995 7.259 6.995 3.194 0 5.905-1.981 6.873-4.745h-4.017a3.6 3.6 0 0 1-2.856 1.419c-1.573 0-2.879-1.003-3.412-2.397h10.551c.072-.416.121-.831.121-1.272 0-3.864-3.243-6.994-7.26-6.994Zm-3.412 5.724c.533-1.394 1.839-2.397 3.412-2.397 1.549 0 2.88 1.003 3.412 2.397h-6.824ZM130.596 23.337c1.403 0 2.589.783 3.218 1.957h3.823c-.798-3.033-3.654-5.283-7.041-5.283-4.017 0-7.26 3.13-7.26 6.994 0 3.865 3.243 6.995 7.26 6.995 3.363 0 6.17-2.201 6.993-5.185h-3.896c-.605 1.1-1.742 1.859-3.097 1.859-2.009 0-3.63-1.639-3.63-3.669 0-2.03 1.621-3.668 3.63-3.668ZM152.929 27.005c0-3.864-3.218-6.994-7.211-6.994-3.992 0-7.211 3.13-7.211 6.994 0 3.865 3.219 6.995 7.211 6.995 3.993 0 7.211-3.13 7.211-6.995Zm-3.629 0c0 2.03-1.598 3.669-3.582 3.669-1.984 0-3.581-1.639-3.581-3.669 0-2.03 1.597-3.668 3.581-3.668s3.582 1.639 3.582 3.668ZM170.467 20.01a6.111 6.111 0 0 0-4.719 2.226 6.111 6.111 0 0 0-4.719-2.225c-4.017 0-6.533 3.13-6.533 6.994v6.604h3.63v-6.604c0-2.03.895-3.668 2.903-3.668 2.009 0 2.904 1.639 2.904 3.668v6.604h3.63v-6.604c0-2.03.895-3.668 2.904-3.668 2.008 0 2.903 1.639 2.903 3.668v6.604H177v-6.604c0-3.864-2.517-6.994-6.533-6.994Z" fill="#151515"/></svg><svg fill="none" viewBox="0 0 14 14" id="icon-search" xmlns="http://www.w3.org/2000/svg"><path d="M8.193 10.433a4.667 4.667 0 1 0 0-9.333 4.667 4.667 0 0 0 0 9.333ZM4.813 9.24l-3.126 3.127" stroke="#151515" stroke-width="1.5" stroke-linecap="round" stroke-linejoin="bevel"/></svg><svg fill="none" viewBox="0 0 24 24" id="icon-user" xmlns="http://www.w3.org/2000/svg"><path d="m3 22 .79-2.88c2.61-9.5 13.81-9.5 16.42 0L21 22" stroke="#151515" stroke-width="2.5" stroke-linecap="round" stroke-linejoin="round"/><path d="M12 11.98a5 5 0 1 0 0-10 5 5 0 0 0 0 10Z" stroke="#151515" stroke-width="2.5" stroke-linecap="round" stroke-linejoin="bevel"/></svg></svg>